<svg xmlns="http://www.w3.org/2000/svg" viewBox="0 0 450.94 113.82"><defs><style>.a{fill:#e92b2c;}.b{fill:#808285;}.c{fill:#f37421;}.d{fill:#ffce07;}</style></defs><title>Avantika Logo</title><path class="a" d="M425.59,53.8V47q-6.75,1.15-9,3.61c-1.12,1.25-1.69,3.22-1.69,5.92,0,3.22,1.48,4.83,4.41,4.83a5.86,5.86,0,0,0,4.44-2,7.85,7.85,0,0,0,1.87-5.6m13.18,11.55H426.39l-.72-3.68A16.1,16.1,0,0,1,414.51,66c-3.28,0-5.83-.8-7.64-2.42a8.65,8.65,0,0,1-2.72-6.82q0-6.34,6.16-9.16a91.69,91.69,0,0,1,11.38-2.89,9.93,9.93,0,0,0,3.9-1.37V42.26c0-3.23-.41-5.53-1.23-6.93-1-1.64-2.67-2.45-5.14-2.45A9.71,9.71,0,0,0,413,35.29a10.55,10.55,0,0,0-3.73,5.53h-2.46V34a17.23,17.23,0,0,1,6.81-3.24A26.62,26.62,0,0,1,421,29.7q7.38,0,10.72,2.6,3.9,3,3.91,10.61V58a16.35,16.35,0,0,0,.22,3.54,2,2,0,0,0,2.17,1.3h.72Zm-60.63,0H364.45q.44-14.28.43-27t-.28-22.8a2.1,2.1,0,0,0-2.4-1.81h-.72V11.52h13.83q-.44,18-.43,26.41V51.79q0,5.12.22,9.81c.23,1.06,1,1.59,2.39,1.59h.65Zm24.34,0H389.37l-.29-.36q-4.43-6.34-13.47-19,.57-.59,7.52-7.51a95.78,95.78,0,0,0,7.18-7.79h9.2a93.5,93.5,0,0,0-15.07,11.55c2.41,3.41,4.86,6.81,7.31,10.17a122.75,122.75,0,0,0,8.11,10.32,4,4,0,0,0,1.6.51h1Zm-47.08,0H342.14q.44-10.24.43-18,0-6.42-.21-12.56c-.2-1.1-1-1.66-2.39-1.66h-.73V30.64h13.33c-.25,6.25-.36,11.84-.36,16.74q0,6.7.21,14.29c.24.72,1,1.08,2.33,1.08h.65ZM353,19.89A5.51,5.51,0,0,1,351.3,24a5.77,5.77,0,0,1-8.18,0,5.52,5.52,0,0,1-1.71-4.07,5.4,5.4,0,0,1,1.71-4,5.87,5.87,0,0,1,8.18,0A5.39,5.39,0,0,1,353,19.89ZM335.4,62.25a10.39,10.39,0,0,1-4.63,2.89,17.14,17.14,0,0,1-5.51.93q-11.08,0-11.08-10.24,0-1,.18-7.69t.18-11.94V34.54a42.56,42.56,0,0,0-4.35.21V30.64c1.08.09,2.53.17,4.35.22V21.91l10.58-1.59c-.29,3.66-.44,5.82-.44,6.5v4.11q6.35,0,8.91-.29v4.11q-2.79-.21-9-.21v3c0,1.34-.05,3.87-.14,7.57s-.15,6.71-.15,9q0,4.47,1.08,6.09c.73,1.09,2,1.63,3.92,1.63q1.67,0,4.34-2.53Zm-30.35,3.1H291.36q.36-5.55.37-20.78c0-3.61-.37-6.18-1.09-7.73a4.4,4.4,0,0,0-4.35-2.66c-2.7,0-4.85,1.39-6.44,4.19a17.8,17.8,0,0,0-2,8.69v5.35c0,2.5.05,5.55.15,9.12.19,1.1,1,1.66,2.39,1.66H281v2.16H267.32c.29-3.95.43-8,.43-12.12v-11q0-3.25-.22-7.44c-.1-1.1-.89-1.66-2.39-1.66h-.72V30.64h12.7a56.73,56.73,0,0,1,.58,5.77q3.9-6.85,11.18-6.85,6,0,9.41,3.43t3.43,9.78V54.38c0,.82,0,2,.11,3.58s.11,2.75.11,3.57c0,1.1.8,1.66,2.39,1.66h.72ZM244.73,53.8V47c-4.51.77-7.51,2-9,3.61-1.12,1.25-1.69,3.22-1.69,5.92q0,4.83,4.4,4.83a5.87,5.87,0,0,0,4.45-2A7.89,7.89,0,0,0,244.73,53.8Zm13.18,11.55H245.53l-.73-3.68A16.05,16.05,0,0,1,233.65,66c-3.28,0-5.83-.8-7.64-2.42a8.62,8.62,0,0,1-2.72-6.82q0-6.34,6.16-9.16,2-.87,11.37-2.89a9.93,9.93,0,0,0,3.91-1.37V42.26c0-3.23-.41-5.53-1.23-6.93-1-1.64-2.68-2.45-5.14-2.45a9.69,9.69,0,0,0-6.27,2.41,10.55,10.55,0,0,0-3.73,5.53H225.9V34a17.18,17.18,0,0,1,6.8-3.24,26.62,26.62,0,0,1,7.46-1.09q7.41,0,10.73,2.6,3.9,3,3.91,10.61V58a16.64,16.64,0,0,0,.21,3.54,2,2,0,0,0,2.18,1.3h.72Zm-37-34.71q-5.66,12.63-14.49,35.14h-9.12A281.4,281.4,0,0,0,184.76,34a3,3,0,0,0-2-.86H182V30.64h13.25a175.71,175.71,0,0,0,9.56,26.2A137.51,137.51,0,0,0,214,33.6c-.15-.29-.56-.44-1.24-.44h-.64V30.64h8.83ZM167.09,53.8V47c-4.51.77-7.51,2-9,3.61-1.11,1.25-1.68,3.22-1.68,5.92q0,4.83,4.41,4.83a5.88,5.88,0,0,0,4.44-2A7.89,7.89,0,0,0,167.09,53.8Zm13.18,11.55H167.88l-.72-3.68A16.07,16.07,0,0,1,156,66c-3.29,0-5.84-.8-7.64-2.42a8.62,8.62,0,0,1-2.72-6.82q0-6.34,6.15-9.16,2-.87,11.38-2.89a10,10,0,0,0,3.91-1.37V42.26c0-3.23-.41-5.53-1.23-6.93-1-1.64-2.68-2.45-5.14-2.45a9.67,9.67,0,0,0-6.27,2.41,10.55,10.55,0,0,0-3.73,5.53h-2.46V34a17.16,17.16,0,0,1,6.81-3.24,26.61,26.61,0,0,1,7.45-1.09q7.39,0,10.72,2.6,3.91,3,3.91,10.61V58a15.43,15.43,0,0,0,.23,3.54,2,2,0,0,0,2.17,1.3h.72Z"/><path class="b" d="M160.51,82h.31a1.12,1.12,0,0,1,.89.3,36.91,36.91,0,0,1,.12,5.22q0,4.38-.06,5.79a10.14,10.14,0,0,1-1.23,5.15,5.14,5.14,0,0,1-4.56,2c-2.47,0-4.14-.7-5-2.12q-1.11-1.74-1.11-6.23L150,81h-4.35v1h.29a1,1,0,0,1,.88.34q0,2.12,0,5.37v5.37c0,6.17,2.88,9.24,8.65,9.24,3.58,0,6-1.15,7.35-3.47q1.32-2.42,1.32-7.73V87.51q0-2.34.09-5c.09-.35.41-.52,1-.52h.31V81h-5Z"/><path class="b" d="M197.74,81.92h.31a.93.93,0,0,1,.9.4q.23.39.23,11.63c0,.52,0,1.2-.06,2.06q-6.9-6.93-13.93-15h-1.32v3.09q0,8.72-.34,16.52a.94.94,0,0,1-.89.37h-.32v.93h5V101H187a1,1,0,0,1-.92-.37c-.1-4.37-.15-8-.15-10.8,0-.91,0-2,.06-3.32l6.72,7.22q5.35,5.73,7.43,8.29h1.14V95.28c0-4.33.06-8.64.18-13a.89.89,0,0,1,.88-.4h.26V81h-4.83Z"/><path class="b" d="M224.46,100.46c0-1.16-.06-4.4-.06-9.7q0-5.45.21-9.76h-4.53v1h.27c.58,0,.91.16,1,.48.05,1.79.09,4.53.09,8.24q0,6.9-.25,11.24h4.56V101h-.21c-.62,0-1-.17-1.08-.52"/><path class="b" d="M257.31,81.92h.31a.92.92,0,0,1,.86.36q-4.06,11.58-5.91,16.06Q248.1,88,245.64,81h-4v.92h.31a1.16,1.16,0,0,1,.65.15q4,8.81,8.23,19.93h2.34q3.63-9.47,8.54-21h-4.35Z"/><path class="b" d="M289.18,100.06q-3.8.31-6.94.31h-.46q-.06-5.61-.06-7.64V91.65q3.21,0,7.48.18V90l-7.48.16v-1c0-2.15,0-4.34.06-6.6h.41q3.44,0,6.49.25c.23.14.34.53.34,1.17h.92V81H277.37v1h.31c.45,0,.75.11.88.33a83.58,83.58,0,0,1,.2,9q0,6.73-.25,10.69h11.87v-3h-.92c0,.61-.1,1-.28,1.13"/><path class="b" d="M323.48,100.92a2.14,2.14,0,0,0-.52-.15l-.56-.52q-4.18-5.79-6-8.58c3.52-.78,5.27-2.64,5.27-5.58q0-5.1-7-5.09c-.68,0-1.5,0-2.47,0l-2,0c-.29,0-.72,0-1.28,0s-1,0-1.28,0h-.31v.94h.31a1,1,0,0,1,.89.33q.22.32.22,9.23c0,4.46-.09,7.94-.25,10.44H313v-1h-.32a2.16,2.16,0,0,1-1-.21c-.06-1.3-.09-2.51-.09-3.61V85.57a26,26,0,0,1,.15-3.07c.8,0,1.42-.06,1.85-.06a5.4,5.4,0,0,1,3.7,1.13,3.68,3.68,0,0,1,1.14,2.87q0,4.38-5.52,4.38h-.46a25.79,25.79,0,0,1,1.94,2.73c.25.38.89,1.4,1.94,3.08s1.88,3.15,2.44,4.11a2.55,2.55,0,0,0,1.26,1,5.21,5.21,0,0,0,1.6.16h2.25v-1h-.31l-.12-.06"/><path class="b" d="M349.8,91.34a25.16,25.16,0,0,0-4.44-2.24,5.73,5.73,0,0,1-2.22-1.44,3.34,3.34,0,0,1-.7-2.24,3.39,3.39,0,0,1,.93-2.37,3.18,3.18,0,0,1,2.42-1A5.47,5.47,0,0,1,349.92,84a2,2,0,0,1,.25.89v.31h.93V81.88a10.73,10.73,0,0,0-4.87-1.22,7.12,7.12,0,0,0-4.78,1.55,5.57,5.57,0,0,0,.34,8.52,22.42,22.42,0,0,0,4.4,2.24q2.93,1.23,2.93,3.84A4,4,0,0,1,348,99.66a3.8,3.8,0,0,1-2.9,1.23,6.65,6.65,0,0,1-4.93-2.36,2,2,0,0,1-.18-.77v-.28H339v3.2a8.76,8.76,0,0,0,5.49,1.62,7.87,7.87,0,0,0,5.38-1.76,6.08,6.08,0,0,0,2-4.81,5.26,5.26,0,0,0-2.09-4.39"/><path class="b" d="M373.44,100.46c0-1.16-.06-4.4-.06-9.7q0-5.45.21-9.76h-4.52v1h.27c.58,0,.91.16,1,.48.07,1.79.1,4.53.1,8.24q0,6.9-.25,11.24h4.57V101h-.22c-.62,0-1-.17-1.08-.52"/><path class="b" d="M391.25,84.1h.93v-.28c0-.59.11-.95.34-1.07a41.62,41.62,0,0,1,4.53-.19h.52l0,7.88q0,2-.15,11.47h4.41V101h-.31a1.15,1.15,0,0,1-.8-.21q-.22-.21-.22-10.15,0-5.7.15-8.06h.59a30.9,30.9,0,0,1,4.41.33,1.5,1.5,0,0,1,.21.91v.3h.93V81H391.25Z"/><path class="b" d="M432.31,100.61c-.09-1.61-.13-3.16-.13-4.63,0-.51,0-1.43.06-2.77q4-7.29,7.1-12.21h-4.26v1h.31A1.63,1.63,0,0,1,436,82q-3.19,6.84-4.68,9.28A69.36,69.36,0,0,1,425.62,81h-4.07v1h.31a1.63,1.63,0,0,1,.49.06q2.92,4.84,6.72,11.39c.11,1.46.15,2.77.15,4,0,1-.05,2.5-.18,4.55h4.47V101h-.31a.93.93,0,0,1-.89-.37"/><path class="a" d="M61,27.29h0a30.06,30.06,0,0,1,13.73-7.65h0A42.44,42.44,0,0,0,61,7.24h0a42.51,42.51,0,0,0-13.73,12.4h0A30.14,30.14,0,0,1,61,27.29"/><path class="a" d="M61,86.52h0a30,30,0,0,1-13.73,7.64h0A42.45,42.45,0,0,0,61,106.58h0a42.38,42.38,0,0,0,13.75-12.4h0A30,30,0,0,1,61,86.52"/><path class="a" d="M110.38,56.9A42.56,42.56,0,0,0,98.05,43.09h0v0a30.27,30.27,0,0,1-7.6,13.8h0A30.27,30.27,0,0,1,98,70.72v0h0a42.49,42.49,0,0,0,12.33-13.82h0Z"/><path class="a" d="M31.55,56.91h0a30.27,30.27,0,0,1-7.6-13.8v0h0A42.56,42.56,0,0,0,11.6,56.9h0A42.6,42.6,0,0,0,23.93,70.73h0v0a30.27,30.27,0,0,1,7.6-13.8Z"/><path class="a" d="M81.81,36h0a30.2,30.2,0,0,1,15.09,4.36h0a42.77,42.77,0,0,0-1-18.53h0a42.84,42.84,0,0,0-18.44-1h0A30.3,30.3,0,0,1,81.81,36"/><path class="a" d="M40.17,77.85h0a30,30,0,0,1-15.08-4.35h0a42.78,42.78,0,0,0,1,18.53h0A42.63,42.63,0,0,0,44.5,93h0a30.3,30.3,0,0,1-4.34-15.17"/><path class="a" d="M96.92,73.48h0a30.12,30.12,0,0,1-15.09,4.37h0A30.3,30.3,0,0,1,77.47,93h0a36.9,36.9,0,0,0,6.65.58A46.49,46.49,0,0,0,95.92,92h0a42.83,42.83,0,0,0,1-18.54Z"/><path class="a" d="M25.07,40.34h0A30.05,30.05,0,0,1,40.16,36h0A30.27,30.27,0,0,1,44.51,20.8h0a42.8,42.8,0,0,0-18.43,1h0a42.83,42.83,0,0,0-1,18.54Z"/><path class="a" d="M62.15,28.54h0a24.19,24.19,0,0,1,5.73,11.6v0h0A23.74,23.74,0,0,1,80.11,36h0a28.86,28.86,0,0,0-4.39-14.85h0a28.48,28.48,0,0,0-13.55,7.37Z"/><path class="a" d="M96.55,42.1h0a28.45,28.45,0,0,0-14.76-4.43h0A24.25,24.25,0,0,1,77.66,50h0A24,24,0,0,1,89.2,55.73h0a28.71,28.71,0,0,0,7.34-13.62Z"/><path class="a" d="M59.83,85.28h0a24.19,24.19,0,0,1-5.73-11.6v0h0A23.9,23.9,0,0,1,41.87,77.8h0a28.74,28.74,0,0,0,4.4,14.84h0a28.48,28.48,0,0,0,13.55-7.37Z"/><path class="a" d="M32.78,58.08h0a28.69,28.69,0,0,0-7.33,13.63h0a28.48,28.48,0,0,0,14.77,4.43h0a24.15,24.15,0,0,1,4.1-12.28h0a24,24,0,0,1-11.54-5.77"/><path class="a" d="M80.11,77.8a23.83,23.83,0,0,1-12.2-4.13h0v0a24.19,24.19,0,0,1-5.73,11.6h0a28.53,28.53,0,0,0,13.55,7.37h0a29,29,0,0,0,4.4-14.85Z"/><path class="a" d="M89.2,58.08a23.84,23.84,0,0,1-11.53,5.76h0a24.25,24.25,0,0,1,4.11,12.28h0a28.45,28.45,0,0,0,14.76-4.43h0a28.69,28.69,0,0,0-7.33-13.63h0Z"/><path class="a" d="M41.86,36h0a23.81,23.81,0,0,1,12.21,4.13h0v0a24.19,24.19,0,0,1,5.73-11.6h0a28.44,28.44,0,0,0-13.55-7.37h0A28.81,28.81,0,0,0,41.86,36Z"/><path class="a" d="M44.32,50a24.15,24.15,0,0,1-4.1-12.28h0A28.48,28.48,0,0,0,25.44,42.1h0a28.79,28.79,0,0,0,7.34,13.63h0A24,24,0,0,1,44.32,50h0Z"/><path class="c" d="M75.74,49.71h0a22.48,22.48,0,0,0,4.32-12h0a22.09,22.09,0,0,0-11.91,4.34h0A20.11,20.11,0,0,1,67,50.88v0h0a19.67,19.67,0,0,1,8.76-1.19"/><path class="c" d="M46.24,64.1h0a22.45,22.45,0,0,0-4.32,12h0a22.19,22.19,0,0,0,11.9-4.34h0A20,20,0,0,1,55,62.93v0h0a19.59,19.59,0,0,1-8.76,1.18"/><path class="c" d="M75.74,64.1A19.64,19.64,0,0,1,67,62.92h0v0a20,20,0,0,1,1.18,8.81h0a22.32,22.32,0,0,0,11.91,4.33h0a22.45,22.45,0,0,0-4.32-12Z"/><path class="c" d="M88,56.9a22.24,22.24,0,0,0-11.47-5.4h0a19.75,19.75,0,0,1-7,5.39h0a19.75,19.75,0,0,1,7,5.39h0A22.22,22.22,0,0,0,88,56.92h0Z"/><path class="c" d="M61,65.41h0a20,20,0,0,1-5.37,7.08h0A22.4,22.4,0,0,0,61,84h0A22.48,22.48,0,0,0,66.37,72.5h0A20,20,0,0,1,61,65.41"/><path class="c" d="M53.83,42.08h0a22.1,22.1,0,0,0-11.91-4.33h0a22.48,22.48,0,0,0,4.32,12h0c.59-.05,1.2-.08,1.81-.08a19.42,19.42,0,0,1,7,1.27h0v0a20.05,20.05,0,0,1-1.19-8.81"/><path class="c" d="M61,29.79h0a22.37,22.37,0,0,0-5.37,11.53h0A20,20,0,0,1,61,48.4v0h0a20,20,0,0,1,5.36-7.08h0A22.45,22.45,0,0,0,61,29.79"/><path class="c" d="M45.5,62.31h0a19.67,19.67,0,0,1,7-5.39h0a19.78,19.78,0,0,1-7-5.39h0A22.31,22.31,0,0,0,34,56.9h0a22.14,22.14,0,0,0,11.47,5.39Z"/><path class="d" d="M65.91,53.22a20,20,0,0,1-1.34,2.19h0a19,19,0,0,1,2.48.59h0a18.11,18.11,0,0,0,7.29-4.67h0a17.9,17.9,0,0,0-8.44,1.88Z"/><path class="d" d="M67.07,57.8h0a19.42,19.42,0,0,1-2.48.59h0a20.21,20.21,0,0,1,1.34,2.18h0a18,18,0,0,0,8.43,1.88h0a18.11,18.11,0,0,0-7.29-4.67"/><path class="d" d="M64.66,61.86a20.77,20.77,0,0,1-2.17-1.35h0a21.12,21.12,0,0,1-.59,2.5h0a18.15,18.15,0,0,0,4.64,7.33h0v0a18.15,18.15,0,0,0-1.87-8.48Z"/><path class="d" d="M59.52,60.51h0a21.87,21.87,0,0,1-2.17,1.35h0a18.35,18.35,0,0,0-1.87,8.47v0h0A18.44,18.44,0,0,0,60.11,63h0a18.94,18.94,0,0,1-.59-2.5"/><path class="d" d="M62.47,53.32h0A21.33,21.33,0,0,1,64.66,52h0a18.11,18.11,0,0,0,1.87-8.47v0h0a18.15,18.15,0,0,0-4.64,7.33h0a20.28,20.28,0,0,1,.59,2.51Z"/><path class="d" d="M57.32,52h0a23.37,23.37,0,0,1,2.17,1.35h0v0a20,20,0,0,1,.59-2.49h0a18.33,18.33,0,0,0-4.64-7.33h0v0A18.42,18.42,0,0,0,57.32,52Z"/><path class="d" d="M54.91,56h0a19.42,19.42,0,0,1,2.48-.59h0a19.41,19.41,0,0,1-1.34-2.19h0a17.69,17.69,0,0,0-8-1.89h-.39A18.08,18.08,0,0,0,54.91,56"/><path class="d" d="M56.07,60.59a22.38,22.38,0,0,1,1.34-2.18h0a19.42,19.42,0,0,1-2.48-.59h0a18.1,18.1,0,0,0-7.28,4.66l0,0h0a17.36,17.36,0,0,0,8.44-1.88Z"/></svg>