<svg width="40" height="34" viewBox="0 0 40 34" fill="none" xmlns="http://www.w3.org/2000/svg">
<path d="M17.5542 22.2352H3.51086V19.8947H17.5542V22.2352ZM24.5758 17.5541H3.51086V15.2136H24.5758V17.5541ZM17.5542 12.873H3.51086V10.5325H17.5542V12.873ZM24.5758 8.19193H3.51086V5.85138H24.5758V8.19193Z" fill="#5C5C99"/>
<path d="M21.2358 30.7215C20.967 30.7211 20.7107 30.6077 20.5295 30.4091C20.345 30.2122 20.2533 29.9458 20.2775 29.677L20.5123 27.0952L31.3587 16.2526L34.7483 19.6413L23.9048 30.4829L21.323 30.7177C21.2933 30.7206 21.2636 30.7215 21.2358 30.7215ZM35.4249 18.9638L32.0362 15.5751L34.0689 13.5425C34.2486 13.3625 34.4925 13.2614 34.7469 13.2614C35.0012 13.2614 35.2452 13.3625 35.4249 13.5425L37.4575 15.5751C37.6375 15.7548 37.7386 15.9988 37.7386 16.2531C37.7386 16.5075 37.6375 16.7514 37.4575 16.9311L35.4259 18.9628L35.4249 18.9638Z" fill="#FFA64C"/>
</svg>
