<svg width="26" height="26" viewBox="0 0 26 26" fill="none" xmlns="http://www.w3.org/2000/svg">
<g clip-path="url(#clip0_297_230)">
<path d="M20.5833 4.33333H19.3917C19.1402 3.1107 18.475 2.01213 17.508 1.22278C16.5411 0.433431 15.3316 0.00157573 14.0833 0L11.9167 0C10.6684 0.00157573 9.45893 0.433431 8.49198 1.22278C7.52503 2.01213 6.85977 3.1107 6.60833 4.33333H5.41667C3.98061 4.33505 2.60385 4.90629 1.5884 5.92174C0.572955 6.93719 0.00172018 8.31394 0 9.75L0 13H26V9.75C25.9983 8.31394 25.427 6.93719 24.4116 5.92174C23.3961 4.90629 22.0194 4.33505 20.5833 4.33333ZM8.866 4.33333C9.08926 3.70185 9.50217 3.15477 10.0482 2.76693C10.5943 2.37909 11.2469 2.16944 11.9167 2.16667H14.0833C14.7531 2.16944 15.4057 2.37909 15.9518 2.76693C16.4978 3.15477 16.9107 3.70185 17.134 4.33333H8.866Z" fill="#5C5C99"/>
<path d="M14.0833 16.2499C14.0833 16.5372 13.9692 16.8128 13.766 17.0159C13.5629 17.2191 13.2873 17.3332 13 17.3332C12.7127 17.3332 12.4371 17.2191 12.234 17.0159C12.0308 16.8128 11.9167 16.5372 11.9167 16.2499V15.1666H0V20.5832C0.00172018 22.0193 0.572955 23.396 1.5884 24.4115C2.60385 25.4269 3.98061 25.9981 5.41667 25.9999H20.5833C22.0194 25.9981 23.3961 25.4269 24.4116 24.4115C25.427 23.396 25.9983 22.0193 26 20.5832V15.1666H14.0833V16.2499Z" fill="#5C5C99"/>
</g>
<defs>
<clipPath id="clip0_297_230">
<rect width="26" height="26" fill="white"/>
</clipPath>
</defs>
</svg>
