<svg width="67" height="64" viewBox="0 0 67 64" fill="none" xmlns="http://www.w3.org/2000/svg">
<rect width="67" height="64" fill="white"/>
<g clip-path="url(#clip0_301_217)">
<path d="M22.2697 39.7119C21.457 40.5243 21.0002 41.6264 21 42.7755V44.9996H23.2241C24.3733 44.9994 25.4753 44.5427 26.2878 43.7299L40.7427 29.275L36.7246 25.257L22.2697 39.7119Z" fill="#5C5C99"/>
<path d="M46.0737 19.9264C45.8099 19.6623 45.4966 19.4528 45.1518 19.3099C44.807 19.167 44.4374 19.0934 44.0641 19.0934C43.6908 19.0934 43.3212 19.167 42.9764 19.3099C42.6316 19.4528 42.3183 19.6623 42.0545 19.9264L38.2563 23.7257L42.2744 27.7438L46.0737 23.9456C46.3378 23.6818 46.5473 23.3685 46.6902 23.0237C46.8331 22.6789 46.9067 22.3093 46.9067 21.936C46.9067 21.5627 46.8331 21.1931 46.6902 20.8483C46.5473 20.5035 46.3378 20.1902 46.0737 19.9264Z" fill="#5C5C99"/>
</g>
<defs>
<clipPath id="clip0_301_217">
<rect width="26" height="26" fill="white" transform="translate(21 19)"/>
</clipPath>
</defs>
</svg>
