<svg width="26" height="26" viewBox="0 0 26 26" fill="none" xmlns="http://www.w3.org/2000/svg">
<g clip-path="url(#clip0_297_219)">
<path d="M1.26967 20.7119C0.456953 21.5243 0.000245429 22.6264 0 23.7755L0 25.9996H2.22408C3.37326 25.9994 4.47528 25.5427 5.28775 24.7299L19.7427 10.275L15.7246 6.25697L1.26967 20.7119Z" fill="#5C5C99"/>
<path d="M25.0737 0.926417C24.8099 0.662338 24.4966 0.452844 24.1518 0.30991C23.807 0.166977 23.4374 0.0934067 23.0641 0.0934067C22.6908 0.0934067 22.3212 0.166977 21.9764 0.30991C21.6316 0.452844 21.3183 0.662338 21.0545 0.926417L17.2563 4.72567L21.2744 8.74375L25.0737 4.94558C25.3378 4.68178 25.5473 4.36852 25.6902 4.0237C25.8331 3.67888 25.9067 3.30927 25.9067 2.936C25.9067 2.56273 25.8331 2.19312 25.6902 1.8483C25.5473 1.50349 25.3378 1.19022 25.0737 0.926417Z" fill="#5C5C99"/>
</g>
<defs>
<clipPath id="clip0_297_219">
<rect width="26" height="26" fill="white"/>
</clipPath>
</defs>
</svg>
