<svg width="26" height="26" viewBox="0 0 26 26" fill="none" xmlns="http://www.w3.org/2000/svg">
<g clip-path="url(#clip0_297_214)">
<path d="M24.4129 9.16505C23.9108 8.66132 23.3138 8.26216 22.6565 7.99067C21.9992 7.71918 21.2945 7.58075 20.5833 7.58338H3.0333L7.69163 2.92505C7.89448 2.72134 8.00809 2.4454 8.00748 2.15792C8.00687 1.87044 7.89209 1.59498 7.68838 1.39213C7.48467 1.18929 7.20873 1.07567 6.92125 1.07628C6.63377 1.07689 6.35831 1.19168 6.15546 1.39538L0.792963 6.7568C0.285229 7.26469 0 7.95344 0 8.67159C0 9.38975 0.285229 10.0785 0.792963 10.5864L6.15546 15.95C6.25604 16.0508 6.37551 16.1309 6.50703 16.1856C6.63856 16.2403 6.77957 16.2686 6.92201 16.2688C7.06446 16.269 7.20555 16.2411 7.33723 16.1868C7.46891 16.1324 7.5886 16.0527 7.68946 15.9521C7.79033 15.8516 7.8704 15.7321 7.92509 15.6006C7.97979 15.469 8.00805 15.328 8.00825 15.1856C8.00845 15.0431 7.98059 14.902 7.92627 14.7704C7.87194 14.6387 7.79221 14.519 7.69163 14.4181L3.0203 9.75005H20.5833C21.4452 9.75005 22.2719 10.0925 22.8814 10.702C23.4909 11.3114 23.8333 12.1381 23.8333 13.0001V20.5834C23.8333 21.4453 23.4909 22.272 22.8814 22.8815C22.2719 23.491 21.4452 23.8334 20.5833 23.8334H5.41663C5.12931 23.8334 4.85376 23.9475 4.6506 24.1507C4.44743 24.3538 4.3333 24.6294 4.3333 24.9167C4.3333 25.204 4.44743 25.4796 4.6506 25.6828C4.85376 25.8859 5.12931 26 5.41663 26H20.5833C22.0194 25.9983 23.3961 25.4271 24.4116 24.4116C25.427 23.3962 25.9982 22.0194 26 20.5834V13.0001C26.0024 12.2876 25.8633 11.5818 25.5909 10.9234C25.3184 10.2651 24.918 9.66745 24.4129 9.16505Z" fill="#5C5C99"/>
</g>
<defs>
<clipPath id="clip0_297_214">
<rect width="26" height="26" fill="white"/>
</clipPath>
</defs>
</svg>
