<svg width="26" height="26" viewBox="0 0 26 26" fill="none" xmlns="http://www.w3.org/2000/svg">
<g clip-path="url(#clip0_297_225)">
<path d="M19.5002 0H8.66683C7.61408 0.00138491 6.58455 0.309514 5.70414 0.886707C4.82373 1.4639 4.13059 2.28514 3.7095 3.25H2.16683C1.87951 3.25 1.60396 3.36414 1.4008 3.5673C1.19763 3.77047 1.0835 4.04602 1.0835 4.33333C1.0835 4.62065 1.19763 4.8962 1.4008 5.09937C1.60396 5.30253 1.87951 5.41667 2.16683 5.41667H3.25016V7.58333H2.16683C1.87951 7.58333 1.60396 7.69747 1.4008 7.90063C1.19763 8.1038 1.0835 8.37935 1.0835 8.66667C1.0835 8.95399 1.19763 9.22954 1.4008 9.4327C1.60396 9.63586 1.87951 9.75 2.16683 9.75H3.25016V11.9167H2.16683C1.87951 11.9167 1.60396 12.0308 1.4008 12.234C1.19763 12.4371 1.0835 12.7127 1.0835 13C1.0835 13.2873 1.19763 13.5629 1.4008 13.766C1.60396 13.9692 1.87951 14.0833 2.16683 14.0833H3.25016V16.25H2.16683C1.87951 16.25 1.60396 16.3641 1.4008 16.5673C1.19763 16.7705 1.0835 17.046 1.0835 17.3333C1.0835 17.6207 1.19763 17.8962 1.4008 18.0994C1.60396 18.3025 1.87951 18.4167 2.16683 18.4167H3.25016V20.5833H2.16683C1.87951 20.5833 1.60396 20.6975 1.4008 20.9006C1.19763 21.1038 1.0835 21.3793 1.0835 21.6667C1.0835 21.954 1.19763 22.2295 1.4008 22.4327C1.60396 22.6359 1.87951 22.75 2.16683 22.75H3.7095C4.13059 23.7149 4.82373 24.5361 5.70414 25.1133C6.58455 25.6905 7.61408 25.9986 8.66683 26H19.5002C20.9362 25.9983 22.313 25.427 23.3284 24.4116C24.3439 23.3961 24.9151 22.0194 24.9168 20.5833V5.41667C24.9151 3.98061 24.3439 2.60385 23.3284 1.5884C22.313 0.572955 20.9362 0.00172018 19.5002 0V0ZM22.7502 20.5833C22.7502 21.4453 22.4078 22.2719 21.7983 22.8814C21.1888 23.4909 20.3621 23.8333 19.5002 23.8333H8.66683C7.80488 23.8333 6.97823 23.4909 6.36873 22.8814C5.75924 22.2719 5.41683 21.4453 5.41683 20.5833V5.41667C5.41683 4.55471 5.75924 3.72806 6.36873 3.11857C6.97823 2.50908 7.80488 2.16667 8.66683 2.16667H19.5002C20.3621 2.16667 21.1888 2.50908 21.7983 3.11857C22.4078 3.72806 22.7502 4.55471 22.7502 5.41667V20.5833ZM14.0835 13C14.9454 13 15.7721 12.6576 16.3816 12.0481C16.9911 11.4386 17.3335 10.612 17.3335 9.75C17.3335 8.88805 16.9911 8.0614 16.3816 7.4519C15.7721 6.84241 14.9454 6.5 14.0835 6.5C13.2215 6.5 12.3949 6.84241 11.7854 7.4519C11.1759 8.0614 10.8335 8.88805 10.8335 9.75C10.8335 10.612 11.1759 11.4386 11.7854 12.0481C12.3949 12.6576 13.2215 13 14.0835 13ZM19.5002 19.5C19.5002 19.7873 19.386 20.0629 19.1829 20.266C18.9797 20.4692 18.7041 20.5833 18.4168 20.5833C18.1295 20.5833 17.854 20.4692 17.6508 20.266C17.4476 20.0629 17.3335 19.7873 17.3335 19.5C17.3335 18.638 16.9911 17.8114 16.3816 17.2019C15.7721 16.5924 14.9454 16.25 14.0835 16.25C13.2215 16.25 12.3949 16.5924 11.7854 17.2019C11.1759 17.8114 10.8335 18.638 10.8335 19.5C10.8335 19.7873 10.7194 20.0629 10.5162 20.266C10.313 20.4692 10.0375 20.5833 9.75016 20.5833C9.46284 20.5833 9.18729 20.4692 8.98413 20.266C8.78097 20.0629 8.66683 19.7873 8.66683 19.5C8.89541 12.3413 19.2737 12.3435 19.5002 19.5Z" fill="#5C5C99"/>
</g>
<defs>
<clipPath id="clip0_297_225">
<rect width="26" height="26" fill="white"/>
</clipPath>
</defs>
</svg>
